<svg xmlns="http://www.w3.org/2000/svg" viewBox="0 0 504 504" xml:space="preserve"><circle style="fill:#fccc32" cx="251.9" cy="252" r="244"/><path style="fill:#efae0c" d="M424.7 79.2c95.2 95.2 95.2 249.6 0 344.8s-249.6 95.2-344.8 0"/><path style="fill:#896530" d="m424.7 401.6-172.8 77.6-172.8-77.6L102.3 124h306.4z"/><path style="fill:#c4a45b" d="m78.3 117.6 173.6-56.8 173.6 56.8-47.2 228-126.4 99.2-126.4-99.2z"/><path style="fill:#a88547" d="m251.9 60.8 173.6 56.8-47.2 228-126.4 99.2"/><path style="fill:#c4a45b" d="m141.5 289.6 110.4-19.2 110.4 19.2-20 196-90.4 18.4-90.4-18.4z"/><path style="fill:#a88547" d="m251.9 270.4 110.4 19.2-20 196-90.4 18.4-90.4-18.4"/><path style="fill:#edebd3" d="m155.1 417.6 6.4 68 90.4 18.4 90.4-18.4 6.4-68-96.8-17.6z"/><path style="fill:#9b7942" d="m324.7 84.8-72.8 72.8V232l119.2 119.2 7.2-5.6 47.2-228z"/><path style="fill:#c4a45b" d="m112.7 0 80 92.8-44.8 69.6-69.6-44.8z"/><path style="fill:#a88547" d="m147.9 162.4-69.6-44.8L112.7 0"/><path style="fill:#c4a45b" d="m391.1 0-80 92.8 44.8 69.6 69.6-44.8z"/><path style="fill:#a88547" d="m355.9 162.4 69.6-44.8L391.1 0"/><path style="fill:#5e6664" d="m195.9 255.2-40-14.4v-26.4l40 14.4z"/><path style="fill:#2f423f" d="M195.9 228.8v26.4l-40-14.4"/><path style="fill:#5e6664" d="m307.9 255.2 40-14.4v-26.4l-40 14.4z"/><path style="fill:#2f423f" d="m307.9 255.2 40-14.4v-26.4"/><path style="fill:#5e6664" d="m251.9 232 81.6-163.2L264.7 4l-12.8-.8"/><path style="fill:#5e6664" d="M251.9 2.4 239.1 4l-68.8 64.8L251.9 232"/><path style="fill:#2f423f" d="m251.9 232 .8-.8 80.8-162.4L264.7 4l-12.8-1.6"/><path style="fill:#c4a45b" d="m235.9 476-40-16v-29.6l40 16.8z"/><path style="fill:#a88547" d="m267.9 476 40-16v-29.6l-40 16.8z"/></svg>